<svg width="78" height="70" viewBox="0 0 78 70" fill="none" xmlns="http://www.w3.org/2000/svg">
<path d="M19.3871 69.7L20.1871 68.3L10.9871 62.1C10.9204 62.0333 10.7871 62 10.5871 62C10.3871 62 10.2204 62.0333 10.0871 62.1L0.987109 68.3L1.98711 69.7L11.0871 63.5C11.2204 63.3667 11.0538 63.3 10.5871 63.3C10.1871 63.3 10.0538 63.3667 10.1871 63.5L19.3871 69.7ZM76.0871 69.7L76.8871 68.3L67.4871 62.1C67.4204 62.0333 67.2871 62 67.0871 62C66.9538 62 66.8204 62.0333 66.6871 62.1L57.2871 68.3L58.0871 69.7L67.4871 63.5C67.6204 63.3667 67.4871 63.3 67.0871 63.3C66.6871 63.3 66.5538 63.3667 66.6871 63.5L76.0871 69.7ZM16.4871 19L17.8871 18.2L11.2871 6.8C11.2204 6.73333 11.1538 6.7 11.0871 6.7C11.0871 6.63333 11.0871 6.56667 11.0871 6.5L1.98711 0.299996L0.987109 1.7L10.0871 7.9C10.1538 7.9 10.1204 7.83333 9.98711 7.7C9.85378 7.56666 9.82044 7.53333 9.88711 7.6L16.4871 19ZM76.8871 1.7L76.0871 0.299996L66.6871 6.5C66.6204 6.56667 66.5538 6.63333 66.4871 6.7C66.4871 6.7 66.4538 6.73333 66.3871 6.8L59.5871 17.7L60.9871 18.5L67.7871 7.6C67.7871 7.53333 67.7204 7.56666 67.5871 7.7C67.4538 7.83333 67.4204 7.9 67.4871 7.9L76.8871 1.7ZM9.78711 62.8H11.3871V7.2C11.3871 7 11.1871 7.1 10.7871 7.5C10.4538 7.83333 10.3871 8 10.5871 8H20.2871C20.4204 8 20.2871 7.86666 19.8871 7.6C19.5538 7.33333 19.4204 7.3 19.4871 7.5L37.9871 62.5C38.1204 62.8333 38.3871 63 38.7871 63C39.1871 63 39.4538 62.8333 39.5871 62.5L58.5871 7.5C58.6538 7.3 58.4871 7.33333 58.0871 7.6C57.7538 7.86666 57.6538 8 57.7871 8H67.0871C67.2871 8 67.1871 7.83333 66.7871 7.5C66.4538 7.1 66.2871 7 66.2871 7.2V62.8H67.8871V7.2C67.8871 7 67.7871 6.83333 67.5871 6.7C67.4538 6.5 67.2871 6.4 67.0871 6.4H57.7871C57.6538 6.4 57.5204 6.46666 57.3871 6.6C57.2538 6.66666 57.1204 6.76666 56.9871 6.89999L37.9871 61.9C37.9204 62.3 38.1871 62.5 38.7871 62.5C39.4538 62.5 39.7204 62.3 39.5871 61.9L21.0871 6.89999C21.0204 6.76666 20.8871 6.66666 20.6871 6.6C20.5538 6.46666 20.4204 6.4 20.2871 6.4H10.5871C10.3871 6.4 10.1871 6.5 9.98711 6.7C9.85378 6.83333 9.78711 7 9.78711 7.2V62.8ZM27.9871 1.6L26.9871 0.399995L19.7871 6.6C19.7204 6.66666 19.6538 6.73333 19.5871 6.8C19.5871 6.8 19.5538 6.86666 19.4871 7L16.3871 18.4L17.9871 18.8L21.0871 7.39999C21.0871 7.33333 21.0204 7.4 20.8871 7.6C20.7538 7.8 20.7204 7.86666 20.7871 7.8L27.9871 1.6ZM59.4871 18.3L61.0871 17.9L58.5871 7C58.5204 6.93333 58.4871 6.86666 58.4871 6.8C58.4871 6.73333 58.4538 6.66666 58.3871 6.6L51.9871 0.399995L50.7871 1.6L57.1871 7.8C57.3204 7.86666 57.3204 7.8 57.1871 7.6C57.0538 7.33333 56.9871 7.26666 56.9871 7.39999L59.4871 18.3ZM41.7871 69.4L43.1871 68.6L39.4871 61.8C39.3538 61.5333 39.1204 61.4 38.7871 61.4C38.5204 61.4 38.2871 61.5333 38.0871 61.8L33.6871 68.6L35.0871 69.4L39.4871 62.6C39.6204 62.3333 39.3871 62.2 38.7871 62.2C38.1871 62.1333 37.9538 62.2667 38.0871 62.6L41.7871 69.4ZM40.0871 44H38.4871L37.9871 62.2H39.5871L40.0871 44ZM1.48711 69.8H19.7871C20.1204 69.8 20.3538 69.6667 20.4871 69.4C20.6204 69.1333 20.6204 68.8667 20.4871 68.6C20.0204 67.6 19.5871 66.4333 19.1871 65.1C18.8538 63.7 18.5871 61.7667 18.3871 59.3C18.2538 56.8333 18.1204 53.6 17.9871 49.6C17.9204 45.5333 17.8871 40.3667 17.8871 34.1C17.8871 31.5667 17.8871 28.8333 17.8871 25.9C17.8871 22.9667 17.9204 20.5333 17.9871 18.6L16.3871 18.9C17.2538 21.1667 18.1538 23.7333 19.0871 26.6C20.0871 29.4667 21.2204 32.6667 22.4871 36.2C24.6204 42.1333 26.3538 47.0333 27.6871 50.9C29.0204 54.7667 30.0538 57.8667 30.7871 60.2C31.5871 62.5333 32.1871 64.3667 32.5871 65.7C32.9871 67.0333 33.3204 68.2 33.5871 69.2C33.6538 69.4 33.7538 69.5333 33.8871 69.6C34.0204 69.7333 34.1871 69.8 34.3871 69.8H42.4871C42.6871 69.8 42.8538 69.7333 42.9871 69.6C43.1204 69.5333 43.2204 69.4 43.2871 69.2C43.5538 68.2 43.8871 67.0333 44.2871 65.7C44.6871 64.3667 45.2871 62.5333 46.0871 60.2C46.8871 57.8667 47.9538 54.7667 49.2871 50.9C50.6871 47.0333 52.4871 42.1333 54.6871 36.2C56.0204 32.4667 57.2204 29.1333 58.2871 26.2C59.3538 23.2667 60.2871 20.6667 61.0871 18.4L59.4871 18.1C59.5538 20.3667 59.5871 23.0333 59.5871 26.1C59.5871 29.1 59.5871 31.7667 59.5871 34.1C59.5871 40.3667 59.5204 45.5333 59.3871 49.6C59.3204 53.6 59.1871 56.8333 58.9871 59.3C58.8538 61.7667 58.6204 63.7 58.2871 65.1C57.9538 66.4333 57.5204 67.6 56.9871 68.6C56.8538 68.8667 56.8538 69.1333 56.9871 69.4C57.1871 69.6667 57.4204 69.8 57.6871 69.8H76.4871C76.8204 69.8 77.0538 69.6667 77.1871 69.4C77.3204 69.1333 77.3204 68.8667 77.1871 68.6C76.7204 67.6 76.2871 66.4333 75.8871 65.1C75.5538 63.7 75.2871 61.7667 75.0871 59.3C74.9538 56.8333 74.8204 53.6 74.6871 49.6C74.6204 45.5333 74.5871 40.3667 74.5871 34.1C74.5871 28.1667 74.6204 23.3 74.6871 19.5C74.8204 15.7 74.9538 12.6333 75.0871 10.3C75.2871 7.96666 75.5538 6.13333 75.8871 4.8C76.2871 3.46666 76.7204 2.33333 77.1871 1.39999C77.3204 1.06666 77.3204 0.799996 77.1871 0.599998C77.0538 0.333331 76.8204 0.199998 76.4871 0.199998H51.3871C51.1871 0.199998 50.9871 0.299996 50.7871 0.499994C50.6538 0.633329 50.5871 0.799998 50.5871 0.999999C50.5871 2.2 50.4871 3.53333 50.2871 5C50.1538 6.46666 49.7871 8.4 49.1871 10.8C48.6538 13.1333 47.7538 16.3 46.4871 20.3C45.2204 24.2333 43.4871 29.3333 41.2871 35.6L38.4871 43.7H40.0871L37.2871 35.6C35.0871 29.2667 33.3538 24.1333 32.0871 20.2C30.8871 16.2 30.0204 13.0333 29.4871 10.7C28.9538 8.3 28.6204 6.4 28.4871 5C28.3538 3.53333 28.2871 2.2 28.2871 0.999999C28.2871 0.799998 28.1871 0.633329 27.9871 0.499994C27.8538 0.299996 27.6871 0.199998 27.4871 0.199998H1.48711C1.22044 0.199998 0.98711 0.333331 0.787109 0.599998C0.653776 0.799996 0.653776 1.06666 0.787109 1.39999C1.32044 2.33333 1.75378 3.46666 2.08711 4.8C2.42044 6.13333 2.65378 7.96666 2.78711 10.3C2.98711 12.6333 3.12044 15.7 3.18711 19.5C3.32044 23.3 3.38711 28.1667 3.38711 34.1C3.38711 40.3667 3.32044 45.5333 3.18711 49.6C3.12044 53.6 2.98711 56.8333 2.78711 59.3C2.65378 61.7667 2.42044 63.7 2.08711 65.1C1.75378 66.4333 1.32044 67.6 0.787109 68.6C0.653776 68.8667 0.653776 69.1333 0.787109 69.4C0.98711 69.6667 1.22044 69.8 1.48711 69.8ZM1.48711 68.2L2.18711 69.4C2.72044 68.4 3.15378 67.2 3.48711 65.8C3.82044 64.3333 4.08711 62.3667 4.28711 59.9C4.55378 57.3667 4.72044 54.0333 4.78711 49.9C4.92044 45.7667 4.98711 40.5 4.98711 34.1C4.98711 28.0333 4.92044 23.0667 4.78711 19.2C4.72044 15.2667 4.55378 12.1333 4.28711 9.8C4.08711 7.4 3.82044 5.53333 3.48711 4.2C3.15378 2.8 2.72044 1.6 2.18711 0.599998L1.48711 1.79999H27.4871L26.6871 0.999999C26.6871 2.2 26.7538 3.53333 26.8871 5C27.0204 6.46666 27.3538 8.4 27.8871 10.8C28.4204 13.2 29.2871 16.4333 30.4871 20.5C31.7538 24.5667 33.4871 29.8 35.6871 36.2L38.4871 44.3C38.6204 44.6333 38.8871 44.8 39.2871 44.8C39.6871 44.8 39.9538 44.6333 40.0871 44.3L42.8871 36.2C45.0871 29.8 46.8204 24.6 48.0871 20.6C49.3538 16.5333 50.2538 13.3 50.7871 10.9C51.3871 8.43333 51.7538 6.46666 51.8871 5C52.0871 3.53333 52.1871 2.2 52.1871 0.999999L51.3871 1.79999H76.4871L75.7871 0.599998C75.3204 1.6 74.8871 2.8 74.4871 4.2C74.1538 5.53333 73.8538 7.4 73.5871 9.8C73.3871 12.1333 73.2204 15.2667 73.0871 19.2C73.0204 23.0667 72.9871 28.0333 72.9871 34.1C72.9871 40.5 73.0204 45.7667 73.0871 49.9C73.2204 54.0333 73.3871 57.3667 73.5871 59.9C73.8538 62.3667 74.1538 64.3333 74.4871 65.8C74.8871 67.2 75.3204 68.4 75.7871 69.4L76.4871 68.2H57.6871L58.3871 69.4C58.9204 68.4 59.3538 67.2 59.6871 65.8C60.0204 64.3333 60.2871 62.3667 60.4871 59.9C60.7538 57.3667 60.9204 54.0333 60.9871 49.9C61.1204 45.7667 61.1871 40.5 61.1871 34.1C61.1871 31.7667 61.1871 29.1 61.1871 26.1C61.1871 23.0333 61.1538 20.3667 61.0871 18.1C61.0871 17.6333 60.8538 17.3667 60.3871 17.3C59.9204 17.2333 59.6204 17.4 59.4871 17.8C58.8871 19.5333 58.2871 21.2333 57.6871 22.9C57.0871 24.5 56.4204 26.3 55.6871 28.3C55.0204 30.3 54.1538 32.7333 53.0871 35.6C50.8871 41.6 49.0871 46.5333 47.6871 50.4C46.3538 54.2667 45.2871 57.4 44.4871 59.8C43.6871 62.1333 43.0871 63.9667 42.6871 65.3C42.2871 66.6333 41.9538 67.8 41.6871 68.8L42.4871 68.2H34.3871L35.1871 68.8C34.9204 67.8 34.5871 66.6333 34.1871 65.3C33.7871 63.9667 33.1871 62.1333 32.3871 59.8C31.6538 57.4 30.6204 54.2667 29.2871 50.4C27.9538 46.5333 26.2204 41.6 24.0871 35.6C22.8204 31.9333 21.6871 28.7 20.6871 25.9C19.6871 23.0333 18.7871 20.5 17.9871 18.3C17.7871 17.9 17.4538 17.7333 16.9871 17.8C16.5871 17.8667 16.3871 18.1333 16.3871 18.6C16.3204 20.5333 16.2871 22.9667 16.2871 25.9C16.2871 28.8333 16.2871 31.5667 16.2871 34.1C16.2871 40.5 16.3204 45.7667 16.3871 49.9C16.5204 54.0333 16.6871 57.3667 16.8871 59.9C17.1538 62.3667 17.4538 64.3333 17.7871 65.8C18.1871 67.2 18.6204 68.4 19.0871 69.4L19.7871 68.2H1.48711Z" fill="white"/>
</svg>
